<?xml version="1.0" encoding="UTF-8"?>
<!-- Created with Inkscape (http://www.inkscape.org/) -->
<svg width="210mm" height="210mm" version="1.1" viewBox="0 0 210 210" xml:space="preserve" xmlns="http://www.w3.org/2000/svg"><g stroke="#000" stroke-linecap="round" stroke-linejoin="round" stroke-width="13.229"><g fill="#00ff03"><path d="m106.61 110.23s-42.218-47.933-48.752-62.93c-6.534-14.998-4.4796-30.925 7.3807-35.35 11.86-4.4252 29.058 10.284 32.436 29.134 3.3782 18.85 8.9346 69.146 8.9346 69.146z"/><path d="m104.24 108.08s-3.4772-58.275 0-77.208c3.4772-18.933 21.955-27.771 36.631-23.482 14.676 4.2897 26.361 23.591 15.968 42.267-10.394 18.676-52.599 58.422-52.599 58.422z"/><path d="m104.14 106.37s40.123-44.003 58.085-48.769c17.962-4.7668 29.582-2.6383 34.339 9.6808 4.7576 12.319-7.0663 24.257-24.476 31.234-17.41 6.977-67.948 7.8542-67.948 7.8542z"/><path d="m103.95 105.45s64.011-10.41 80.734-0.91329c16.724 9.4971 17.563 19.84 16.256 31.234s-7.5384 23.693-28.129 23.197-68.862-53.518-68.862-53.518z"/><path d="m103.38 103.59s33.695 33.474 41.812 47.95c8.1173 14.476 5.3388 30.4-1.7262 35.866s-18.627 2.975-30.496-11.508c-11.869-14.483-9.59-72.308-9.59-72.308z"/><path d="m104.47 106.23s9.8769 64.267 0.54797 79.273c-9.329 15.006-22.579 21.054-35.001 17.249s-20.905-12.366-19.065-32.592c1.8397-20.226 53.518-63.93 53.518-63.93z"/></g><path d="m103.44 107.4s-35.939 37.331-51.327 40.732c-15.388 3.4011-23.473 2.9458-28.129-4.9317s-5.067-16.321 7.6716-27.216 71.784-8.5849 71.784-8.5849z" fill="#f5091f"/><path d="m102.01 107.02s-49.266 2.8098-69.592 0-24.215-11.647-23.745-23.745c0.46999-12.098 15.745-27.854 33.426-27.033s59.911 50.779 59.911 50.779z" fill="#00ff03"/><circle cx="103.56" cy="104.51" r="22.852" fill="#f8ee3e"/></g></svg>
